<mxfile host="app.diagrams.net" modified="2023-12-30T16:18:43.474Z" agent="Mozilla/5.0 (Windows NT 10.0; Win64; x64) AppleWebKit/537.36 (KHTML, like Gecko) Chrome/120.0.0.0 Safari/537.36" etag="o22JSZpnSiPwHYtTBIlg" version="22.1.16" type="github">
  <diagram name="Page-1" id="FpshqpoR7X4_dg7ihBnS">
    <mxGraphModel dx="6950" dy="2610" grid="1" gridSize="10" guides="1" tooltips="1" connect="1" arrows="1" fold="1" page="1" pageScale="1" pageWidth="850" pageHeight="1100" math="0" shadow="0">
      <root>
        <mxCell id="0" />
        <mxCell id="1" parent="0" />
        <mxCell id="irXWmgbF4XnON0FsWE9v-49" style="edgeStyle=orthogonalEdgeStyle;rounded=0;orthogonalLoop=1;jettySize=auto;html=1;exitX=1;exitY=0.5;exitDx=0;exitDy=0;entryX=0;entryY=0.5;entryDx=0;entryDy=0;" edge="1" parent="1" source="irXWmgbF4XnON0FsWE9v-1" target="irXWmgbF4XnON0FsWE9v-50">
          <mxGeometry relative="1" as="geometry">
            <Array as="points">
              <mxPoint x="-430" y="652" />
              <mxPoint x="-430" y="1371" />
            </Array>
          </mxGeometry>
        </mxCell>
        <mxCell id="irXWmgbF4XnON0FsWE9v-1" value="&lt;div style=&quot;display: flex; justify-content: center; text-align: center; align-items: baseline; font-size: 0; line-height: 1.25;margin-top: -2px;&quot;&gt;&lt;span&gt;&lt;span style=&quot;font-size:13px;&quot;&gt;&lt;span style=&quot;font-size:13px;&quot;&gt;Input &lt;/span&gt;&lt;span style=&quot;font-size:13px;color:#e81313;&quot;&gt;valid&lt;/span&gt; lots&lt;/span&gt;&lt;/span&gt;&lt;/div&gt;" style="html=1;overflow=block;blockSpacing=1;whiteSpace=wrap;shape=document;boundedLbl=1;fontSize=13;spacing=0;strokeOpacity=100;rounded=1;absoluteArcSize=1;arcSize=7.5;fillColor=#ffffff;strokeWidth=1.5;lucidId=HM0Xejd4tUo4;" vertex="1" parent="1">
          <mxGeometry x="-640" y="597.5" width="168" height="108" as="geometry" />
        </mxCell>
        <mxCell id="irXWmgbF4XnON0FsWE9v-2" value="&lt;div style=&quot;display: flex; justify-content: center; text-align: center; align-items: baseline; font-size: 0; line-height: 1.25;margin-top: -2px;&quot;&gt;&lt;span&gt;&lt;span style=&quot;font-size:13px;&quot;&gt;&lt;span style=&quot;font-size:13px;&quot;&gt;SELECT * FROM &lt;/span&gt;&lt;span style=&quot;font-size:13px;color:#e81313;&quot;&gt;PRODDTA.f5541tf &lt;/span&gt;&lt;span style=&quot;font-size:13px;&quot;&gt;WHERE trim(trflot) IN ({&#39;&lt;/span&gt;&lt;span style=&quot;font-size:13px;color:#e81313;&quot;&gt;valid Lots&lt;/span&gt;&#39;}) AND TRIM(trflot) IS NOT NULL AND trlotn IS NOT NULL AND TRIM(TRMCUF) NOT IN (&#39;HA1&#39;)) Consolidate results into a DataFrame (inc_df)&lt;/span&gt;&lt;/span&gt;&lt;/div&gt;" style="html=1;overflow=block;blockSpacing=1;whiteSpace=wrap;shape=process;fontSize=13;spacing=0;strokeOpacity=100;fillOpacity=100;rounded=1;absoluteArcSize=1;arcSize=7.5;fillColor=#ffffff;strokeWidth=1.5;lucidId=EN0XXESsbe9Y;" vertex="1" parent="1">
          <mxGeometry x="-360" y="561" width="350" height="180" as="geometry" />
        </mxCell>
        <mxCell id="irXWmgbF4XnON0FsWE9v-3" value="&lt;div style=&quot;display: flex; justify-content: center; text-align: center; align-items: baseline; font-size: 0; line-height: 1.25;margin-top: -2px;&quot;&gt;&lt;span&gt;&lt;span style=&quot;font-size:13px;&quot;&gt;&lt;span style=&quot;font-size:13px;&quot;&gt;Extract values of &lt;/span&gt;&lt;span style=&quot;font-size:13px;color:#e81313;&quot;&gt;TRLOTN&lt;/span&gt;&lt;span style=&quot;font-size:13px;&quot;&gt; and create a list of valid lots (child_lots) from DataFrame &lt;/span&gt;&lt;span style=&quot;font-size:13px;color:#e81313;&quot;&gt;(inc_df)&lt;/span&gt;&lt;/span&gt;&lt;/span&gt;&lt;/div&gt;" style="html=1;overflow=block;blockSpacing=1;whiteSpace=wrap;shape=process;fontSize=13;spacing=0;strokeOpacity=100;fillOpacity=100;rounded=1;absoluteArcSize=1;arcSize=7.5;fillColor=#ffffff;strokeWidth=1.5;lucidId=VN0XKzcY-zDv;" vertex="1" parent="1">
          <mxGeometry x="-305" y="276" width="240" height="120" as="geometry" />
        </mxCell>
        <mxCell id="irXWmgbF4XnON0FsWE9v-4" value="&lt;div style=&quot;display: flex; justify-content: center; text-align: center; align-items: baseline; font-size: 0; line-height: 1.25;margin-top: -2px;&quot;&gt;&lt;span&gt;&lt;span style=&quot;font-size:13px;&quot;&gt;&lt;span style=&quot;font-size:13px;&quot;&gt;SELECT * FROM &lt;/span&gt;&lt;span style=&quot;font-size:13px;color:#e81313;&quot;&gt;PRODDTA.f5541tf&lt;/span&gt;&lt;span style=&quot;font-size:13px;&quot;&gt; WHERE trim(trflot) IN ({&#39;&lt;/span&gt;&lt;span style=&quot;font-size:13px;color:#e81313;&quot;&gt;child_lots&lt;/span&gt;&lt;span style=&quot;font-size:13px;&quot;&gt;&#39;}) AND TRIM(trflot) IS NOT NULL AND trlotn IS NOT NULL AND TRIM(TRMCUF) NOT IN (&#39;HA1&#39;)) Consolidate results into a DataFrame &lt;/span&gt;&lt;span style=&quot;font-size:13px;color:#e81313;&quot;&gt;(reprocess df)&lt;/span&gt;&lt;/span&gt;&lt;/span&gt;&lt;/div&gt;" style="html=1;overflow=block;blockSpacing=1;whiteSpace=wrap;shape=process;fontSize=13;spacing=0;strokeOpacity=100;fillOpacity=100;rounded=1;absoluteArcSize=1;arcSize=7.5;fillColor=#ffffff;strokeWidth=1.5;lucidId=YN0XIC7FynBe;" vertex="1" parent="1">
          <mxGeometry x="36" y="240" width="360" height="204" as="geometry" />
        </mxCell>
        <mxCell id="irXWmgbF4XnON0FsWE9v-5" value="&lt;div style=&quot;display: flex; justify-content: center; text-align: center; align-items: baseline; font-size: 0; line-height: 1.25;margin-top: -2px;&quot;&gt;&lt;span&gt;&lt;span style=&quot;font-size:13px;&quot;&gt;&lt;span style=&quot;font-size:13px;&quot;&gt;Combine results from &lt;/span&gt;&lt;span style=&quot;font-size:13px;color:#e81313;&quot;&gt;Step 3&lt;/span&gt;&lt;span style=&quot;font-size:13px;&quot;&gt; and &lt;/span&gt;&lt;span style=&quot;font-size:13px;color:#e81313;&quot;&gt;step 5&lt;/span&gt;&lt;span style=&quot;font-size:13px;&quot;&gt; into a final DataFrame &lt;/span&gt;&lt;span style=&quot;font-size:13px;color:#e81313;&quot;&gt;(lake_df).&lt;/span&gt;&lt;/span&gt;&lt;/span&gt;&lt;/div&gt;" style="html=1;overflow=block;blockSpacing=1;whiteSpace=wrap;shape=process;fontSize=13;spacing=0;strokeOpacity=100;fillOpacity=100;rounded=1;absoluteArcSize=1;arcSize=7.5;fillColor=#ffffff;strokeWidth=1.5;lucidId=SO0XU.fqqX2I;" vertex="1" parent="1">
          <mxGeometry x="114" y="597.5" width="204" height="102" as="geometry" />
        </mxCell>
        <mxCell id="irXWmgbF4XnON0FsWE9v-6" value="&lt;div style=&quot;display: flex; justify-content: center; text-align: center; align-items: baseline; font-size: 0; line-height: 1.25;margin-top: -2px;&quot;&gt;&lt;span&gt;&lt;span style=&quot;font-size:13px;color:#e81313;&quot;&gt;insert/update&lt;/span&gt;&lt;span style=&quot;font-size:13px;&quot;&gt; data into&lt;/span&gt;&lt;span style=&quot;font-size:13px;color:#e81313;&quot;&gt; reprocessing log&lt;/span&gt;&lt;span style=&quot;font-size:13px;&quot;&gt; table&lt;/span&gt;&lt;/span&gt;&lt;/div&gt;" style="html=1;overflow=block;blockSpacing=1;whiteSpace=wrap;shape=document;boundedLbl=1;fontSize=13;spacing=0;strokeOpacity=100;rounded=1;absoluteArcSize=1;arcSize=7.5;fillColor=#ffffff;strokeWidth=1.5;lucidId=oP0XrluznzYb;" vertex="1" parent="1">
          <mxGeometry x="138" y="1200" width="156" height="114" as="geometry" />
        </mxCell>
        <mxCell id="irXWmgbF4XnON0FsWE9v-7" value="&lt;div style=&quot;display: flex; justify-content: center; text-align: center; align-items: baseline; font-size: 0; line-height: 1.25;margin-top: -2px;&quot;&gt;&lt;span&gt;&lt;span style=&quot;font-size:13px;&quot;&gt;insert data to lake table(&lt;/span&gt;&lt;span style=&quot;font-size:1.7px;&quot;&gt;(&lt;/span&gt;&lt;span style=&quot;font-size:9.3px;color:#e81313;&quot;&gt;gms_us_lake.gmsgqddm_jde_f5541tf_inc&lt;/span&gt;&lt;span style=&quot;font-size:9.3px;&quot;&gt;)&lt;/span&gt;&lt;/span&gt;&lt;/div&gt;" style="html=1;overflow=block;blockSpacing=1;whiteSpace=wrap;shape=document;boundedLbl=1;fontSize=13;spacing=0;strokeOpacity=100;fillOpacity=100;rounded=1;absoluteArcSize=1;arcSize=7.5;fillColor=#ffffff;strokeWidth=1.5;lucidId=UP0XvqFEvbbz;" vertex="1" parent="1">
          <mxGeometry x="1170" y="558.5" width="228" height="180" as="geometry" />
        </mxCell>
        <mxCell id="irXWmgbF4XnON0FsWE9v-8" value="&lt;div style=&quot;display: flex; justify-content: center; text-align: center; align-items: baseline; font-size: 0; line-height: 1.25;margin-top: -2px;&quot;&gt;&lt;span&gt;&lt;span style=&quot;font-size:13px;&quot;&gt;&lt;span style=&quot;font-size:13px;&quot;&gt;Extract values of &lt;/span&gt;&lt;span style=&quot;font-size:13px;color:#e81313;&quot;&gt;trflot&lt;/span&gt;&lt;span style=&quot;font-size:13px;&quot;&gt; and create a list of &lt;/span&gt;&lt;span style=&quot;font-size:13px;color:#e81313;&quot;&gt;processed lots &lt;/span&gt;&lt;span style=&quot;font-size:13px;&quot;&gt; from DataFrame &lt;/span&gt;&lt;span style=&quot;font-size:13px;color:#e81313;&quot;&gt;(lake_df)&lt;/span&gt;&lt;/span&gt;&lt;/span&gt;&lt;/div&gt;" style="html=1;overflow=block;blockSpacing=1;whiteSpace=wrap;shape=process;fontSize=13;spacing=0;strokeOpacity=100;fillOpacity=100;rounded=1;absoluteArcSize=1;arcSize=7.5;fillColor=#ffffff;strokeWidth=1.5;lucidId=4Z0XZ25a2CZ6;" vertex="1" parent="1">
          <mxGeometry x="114" y="804" width="204" height="102" as="geometry" />
        </mxCell>
        <mxCell id="irXWmgbF4XnON0FsWE9v-9" value="&lt;div style=&quot;display: flex; justify-content: center; align-items: baseline; line-height: 1.25; margin-top: -2px;&quot;&gt;&lt;font style=&quot;&quot;&gt;&lt;font style=&quot;font-size: 12px;&quot;&gt;compare &lt;font color=&quot;#ff3333&quot;&gt;processed lots&lt;/font&gt; and &lt;font color=&quot;#ff3333&quot;&gt;valid lots&amp;nbsp;&lt;/font&gt;&lt;br&gt;to identify to identify Not processed lots&lt;br&gt;&lt;/font&gt;&lt;/font&gt;&lt;/div&gt;" style="html=1;overflow=block;blockSpacing=1;whiteSpace=wrap;rhombus;fontSize=13;spacing=0;strokeOpacity=100;fillOpacity=100;rounded=1;absoluteArcSize=1;arcSize=7.5;fillColor=#ffffff;strokeWidth=1.5;lucidId=-00Xp6UZX-Uo;align=center;" vertex="1" parent="1">
          <mxGeometry x="84.5" y="949" width="263" height="190" as="geometry" />
        </mxCell>
        <mxCell id="irXWmgbF4XnON0FsWE9v-47" style="edgeStyle=orthogonalEdgeStyle;rounded=0;orthogonalLoop=1;jettySize=auto;html=1;exitX=1;exitY=0.5;exitDx=0;exitDy=0;" edge="1" parent="1" source="irXWmgbF4XnON0FsWE9v-10" target="irXWmgbF4XnON0FsWE9v-46">
          <mxGeometry relative="1" as="geometry" />
        </mxCell>
        <mxCell id="irXWmgbF4XnON0FsWE9v-10" value="&lt;div style=&quot;display: flex; justify-content: center; text-align: center; align-items: baseline; font-size: 0; line-height: 1.25;margin-top: -2px;&quot;&gt;&lt;span&gt;&lt;span style=&quot;font-size:13px;&quot;&gt;&lt;span style=&quot;font-size:13px;&quot;&gt;Combine results from &lt;/span&gt;&lt;span style=&quot;font-size:13px;color:#e81313;&quot;&gt;Steps 6 and 10&lt;/span&gt;&lt;span style=&quot;font-size:13px;&quot;&gt; into a final DataFrame &lt;/span&gt;&lt;span style=&quot;font-size:13px;color:#e81313;&quot;&gt;(lake_df).&lt;/span&gt;&lt;/span&gt;&lt;/span&gt;&lt;/div&gt;" style="html=1;overflow=block;blockSpacing=1;whiteSpace=wrap;shape=process;fontSize=13;spacing=0;strokeColor=#e81313;strokeOpacity=100;fillOpacity=100;rounded=1;absoluteArcSize=1;arcSize=7.5;fillColor=#ffffff;strokeWidth=1.5;lucidId=D30XaaJnFZfR;" vertex="1" parent="1">
          <mxGeometry x="480" y="597.5" width="204" height="102" as="geometry" />
        </mxCell>
        <mxCell id="irXWmgbF4XnON0FsWE9v-11" value="&lt;div style=&quot;display: flex; justify-content: center; text-align: center; align-items: baseline; font-size: 0; line-height: 1.25;margin-top: -2px;&quot;&gt;&lt;span&gt;&lt;span style=&quot;font-size:13px;&quot;&gt;&lt;span style=&quot;font-size:13px;&quot;&gt;create DataFrames rehased data if any data processed&lt;/span&gt;&lt;span style=&quot;font-size:13px;color:#e81313;&quot;&gt;(rehashed_df)&lt;/span&gt;&lt;/span&gt;&lt;/span&gt;&lt;/div&gt;" style="html=1;overflow=block;blockSpacing=1;whiteSpace=wrap;shape=process;fontSize=13;spacing=0;strokeOpacity=100;fillOpacity=100;rounded=1;absoluteArcSize=1;arcSize=7.5;fillColor=#ffffff;strokeWidth=1.5;lucidId=930X0cL3SkqX;" vertex="1" parent="1">
          <mxGeometry x="480" y="987" width="204" height="114" as="geometry" />
        </mxCell>
        <mxCell id="irXWmgbF4XnON0FsWE9v-12" value="" style="html=1;jettySize=18;whiteSpace=wrap;overflow=block;blockSpacing=1;fontSize=13;strokeWidth=1.5;rounded=1;arcSize=10;edgeStyle=orthogonalEdgeStyle;startArrow=none;endArrow=block;endFill=1;exitX=1.004;exitY=0.501;exitPerimeter=0;entryX=-0.002;entryY=0.5;entryPerimeter=0;lucidId=H60X2R8GXBZb;" edge="1" parent="1" source="irXWmgbF4XnON0FsWE9v-1" target="irXWmgbF4XnON0FsWE9v-2">
          <mxGeometry width="100" height="100" relative="1" as="geometry">
            <Array as="points" />
          </mxGeometry>
        </mxCell>
        <mxCell id="irXWmgbF4XnON0FsWE9v-13" value="" style="html=1;jettySize=18;whiteSpace=wrap;overflow=block;blockSpacing=1;fontSize=13;strokeWidth=1.5;rounded=1;arcSize=10;edgeStyle=orthogonalEdgeStyle;startArrow=none;endArrow=block;endFill=1;exitX=0.5;exitY=-0.004;exitPerimeter=0;entryX=0.5;entryY=1.006;entryPerimeter=0;lucidId=P60XYDCTpquX;" edge="1" parent="1" source="irXWmgbF4XnON0FsWE9v-2" target="irXWmgbF4XnON0FsWE9v-3">
          <mxGeometry width="100" height="100" relative="1" as="geometry">
            <Array as="points" />
          </mxGeometry>
        </mxCell>
        <mxCell id="irXWmgbF4XnON0FsWE9v-14" value="" style="html=1;jettySize=18;whiteSpace=wrap;overflow=block;blockSpacing=1;fontSize=13;strokeWidth=1.5;rounded=1;arcSize=10;edgeStyle=orthogonalEdgeStyle;startArrow=none;endArrow=block;endFill=1;exitX=1.003;exitY=0.5;exitPerimeter=0;entryX=-0.002;entryY=0.471;entryPerimeter=0;lucidId=060XTj1y384~;" edge="1" parent="1" source="irXWmgbF4XnON0FsWE9v-3" target="irXWmgbF4XnON0FsWE9v-4">
          <mxGeometry width="100" height="100" relative="1" as="geometry">
            <Array as="points" />
          </mxGeometry>
        </mxCell>
        <mxCell id="irXWmgbF4XnON0FsWE9v-15" value="" style="html=1;jettySize=18;whiteSpace=wrap;overflow=block;blockSpacing=1;fontSize=13;strokeWidth=1.5;rounded=1;arcSize=10;edgeStyle=orthogonalEdgeStyle;startArrow=none;endArrow=block;endFill=1;exitX=0.5;exitY=1.004;exitPerimeter=0;entryX=0.5;entryY=-0.007;entryPerimeter=0;lucidId=460Xst6l0HKW;" edge="1" parent="1" source="irXWmgbF4XnON0FsWE9v-4" target="irXWmgbF4XnON0FsWE9v-5">
          <mxGeometry width="100" height="100" relative="1" as="geometry">
            <Array as="points" />
          </mxGeometry>
        </mxCell>
        <mxCell id="irXWmgbF4XnON0FsWE9v-16" value="" style="html=1;jettySize=18;whiteSpace=wrap;overflow=block;blockSpacing=1;fontSize=13;strokeWidth=1.5;rounded=1;arcSize=10;edgeStyle=orthogonalEdgeStyle;startArrow=none;endArrow=block;endFill=1;exitX=1.002;exitY=0.5;exitPerimeter=0;entryX=-0.004;entryY=0.529;entryPerimeter=0;lucidId=-60XFMZgzzUw;" edge="1" parent="1" source="irXWmgbF4XnON0FsWE9v-2" target="irXWmgbF4XnON0FsWE9v-5">
          <mxGeometry width="100" height="100" relative="1" as="geometry">
            <Array as="points" />
          </mxGeometry>
        </mxCell>
        <mxCell id="irXWmgbF4XnON0FsWE9v-17" value="" style="html=1;jettySize=18;whiteSpace=wrap;overflow=block;blockSpacing=1;fontSize=13;strokeWidth=1.5;rounded=1;arcSize=10;edgeStyle=orthogonalEdgeStyle;startArrow=none;endArrow=block;endFill=1;exitX=0.5;exitY=1.007;exitPerimeter=0;entryX=0.5;entryY=-0.007;entryPerimeter=0;lucidId=e70XMPJT1pXC;" edge="1" parent="1" source="irXWmgbF4XnON0FsWE9v-5" target="irXWmgbF4XnON0FsWE9v-8">
          <mxGeometry width="100" height="100" relative="1" as="geometry">
            <Array as="points" />
          </mxGeometry>
        </mxCell>
        <mxCell id="irXWmgbF4XnON0FsWE9v-18" value="" style="html=1;jettySize=18;whiteSpace=wrap;overflow=block;blockSpacing=1;fontSize=13;strokeWidth=1.5;rounded=1;arcSize=10;edgeStyle=orthogonalEdgeStyle;startArrow=none;endArrow=block;endFill=1;entryX=0.005;entryY=0.5;entryPerimeter=0;lucidId=j70XNJQvM89U;exitX=1;exitY=0.5;exitDx=0;exitDy=0;" edge="1" parent="1" source="irXWmgbF4XnON0FsWE9v-1" target="irXWmgbF4XnON0FsWE9v-9">
          <mxGeometry width="100" height="100" relative="1" as="geometry">
            <Array as="points">
              <mxPoint x="-430" y="651" />
              <mxPoint x="-430" y="1044" />
            </Array>
            <mxPoint x="-560" y="697" as="sourcePoint" />
          </mxGeometry>
        </mxCell>
        <mxCell id="irXWmgbF4XnON0FsWE9v-19" value="" style="html=1;jettySize=18;whiteSpace=wrap;overflow=block;blockSpacing=1;fontSize=13;strokeWidth=1.5;rounded=1;arcSize=10;edgeStyle=orthogonalEdgeStyle;startArrow=none;endArrow=block;endFill=1;exitX=0.5;exitY=1.007;exitPerimeter=0;entryX=0.5;entryY=0.002;entryPerimeter=0;lucidId=C80XBHqNr_fK;" edge="1" parent="1" source="irXWmgbF4XnON0FsWE9v-8" target="irXWmgbF4XnON0FsWE9v-9">
          <mxGeometry width="100" height="100" relative="1" as="geometry">
            <Array as="points" />
          </mxGeometry>
        </mxCell>
        <mxCell id="irXWmgbF4XnON0FsWE9v-20" value="" style="html=1;jettySize=18;whiteSpace=wrap;overflow=block;blockSpacing=1;fontSize=13;strokeWidth=1.5;rounded=1;arcSize=10;edgeStyle=orthogonalEdgeStyle;startArrow=none;endArrow=block;endFill=1;exitX=0.5;exitY=0.998;exitPerimeter=0;entryX=0.5;entryY=-0.007;entryPerimeter=0;lucidId=780XAX_ksfXo;" edge="1" parent="1" source="irXWmgbF4XnON0FsWE9v-9" target="irXWmgbF4XnON0FsWE9v-6">
          <mxGeometry width="100" height="100" relative="1" as="geometry">
            <Array as="points" />
          </mxGeometry>
        </mxCell>
        <mxCell id="irXWmgbF4XnON0FsWE9v-21" value="" style="html=1;jettySize=18;whiteSpace=wrap;overflow=block;blockSpacing=1;fontSize=13;strokeWidth=1.5;rounded=1;arcSize=10;edgeStyle=orthogonalEdgeStyle;startArrow=none;endArrow=block;endFill=1;exitX=0.995;exitY=0.5;exitPerimeter=0;entryX=-0.004;entryY=0.5;entryPerimeter=0;lucidId=j90XVlHCMra-;" edge="1" parent="1" source="irXWmgbF4XnON0FsWE9v-9" target="irXWmgbF4XnON0FsWE9v-11">
          <mxGeometry width="100" height="100" relative="1" as="geometry">
            <Array as="points" />
          </mxGeometry>
        </mxCell>
        <mxCell id="irXWmgbF4XnON0FsWE9v-22" value="" style="html=1;jettySize=18;whiteSpace=wrap;overflow=block;blockSpacing=1;fontSize=13;strokeWidth=1.5;rounded=1;arcSize=10;edgeStyle=orthogonalEdgeStyle;startArrow=none;endArrow=block;endFill=1;exitX=1.004;exitY=0.5;exitPerimeter=0;entryX=-0.004;entryY=0.5;entryPerimeter=0;lucidId=z90XpxgbbMBp;" edge="1" parent="1" source="irXWmgbF4XnON0FsWE9v-5" target="irXWmgbF4XnON0FsWE9v-10">
          <mxGeometry width="100" height="100" relative="1" as="geometry">
            <Array as="points" />
          </mxGeometry>
        </mxCell>
        <mxCell id="irXWmgbF4XnON0FsWE9v-23" value="" style="html=1;jettySize=18;whiteSpace=wrap;overflow=block;blockSpacing=1;fontSize=13;strokeWidth=1.5;rounded=1;arcSize=10;edgeStyle=orthogonalEdgeStyle;startArrow=none;endArrow=block;endFill=1;exitX=0.5;exitY=-0.007;exitPerimeter=0;entryX=0.5;entryY=1.007;entryPerimeter=0;lucidId=D90X0wuZ-aKF;" edge="1" parent="1" source="irXWmgbF4XnON0FsWE9v-11" target="irXWmgbF4XnON0FsWE9v-10">
          <mxGeometry width="100" height="100" relative="1" as="geometry">
            <Array as="points" />
          </mxGeometry>
        </mxCell>
        <mxCell id="irXWmgbF4XnON0FsWE9v-24" value="" style="html=1;jettySize=18;whiteSpace=wrap;overflow=block;blockSpacing=1;fontSize=13;strokeWidth=1.5;rounded=1;arcSize=10;edgeStyle=orthogonalEdgeStyle;startArrow=none;endArrow=block;endFill=1;exitX=1.004;exitY=0.5;exitPerimeter=0;entryX=-0.003;entryY=0.5;entryPerimeter=0;lucidId=O90XbjlRAvQq;" edge="1" parent="1" source="irXWmgbF4XnON0FsWE9v-10" target="irXWmgbF4XnON0FsWE9v-7">
          <mxGeometry width="100" height="100" relative="1" as="geometry">
            <Array as="points" />
          </mxGeometry>
        </mxCell>
        <mxCell id="irXWmgbF4XnON0FsWE9v-25" value="STEP-1" style="html=1;overflow=block;blockSpacing=1;whiteSpace=wrap;fontSize=13;spacing=0;strokeOpacity=100;rounded=1;absoluteArcSize=1;arcSize=7.5;fillColor=#ffffff;strokeWidth=1.5;strokeColor=none;lucidId=H.0XKU32zUTg;" vertex="1" parent="1">
          <mxGeometry x="-1108" y="490" width="180" height="45" as="geometry" />
        </mxCell>
        <mxCell id="irXWmgbF4XnON0FsWE9v-26" value="STEP-2" style="html=1;overflow=block;blockSpacing=1;whiteSpace=wrap;fontSize=13;spacing=0;strokeOpacity=100;rounded=1;absoluteArcSize=1;arcSize=7.5;fillColor=#ffffff;strokeWidth=1.5;strokeColor=none;lucidId=Q.0XkjESWLVG;" vertex="1" parent="1">
          <mxGeometry x="-612" y="540" width="180" height="50" as="geometry" />
        </mxCell>
        <mxCell id="irXWmgbF4XnON0FsWE9v-27" value="STEP-3" style="html=1;overflow=block;blockSpacing=1;whiteSpace=wrap;fontSize=13;spacing=0;strokeOpacity=100;rounded=1;absoluteArcSize=1;arcSize=7.5;fillColor=#ffffff;strokeWidth=1.5;strokeColor=none;lucidId=V.0Xpbn~p3YC;" vertex="1" parent="1">
          <mxGeometry x="-180" y="494" width="180" height="50" as="geometry" />
        </mxCell>
        <mxCell id="irXWmgbF4XnON0FsWE9v-28" value="STEP-4" style="html=1;overflow=block;blockSpacing=1;whiteSpace=wrap;fontSize=13;spacing=0;strokeOpacity=100;rounded=1;absoluteArcSize=1;arcSize=7.5;fillColor=#ffffff;strokeWidth=1.5;strokeColor=none;lucidId=Z.0X7BbVY8fb;" vertex="1" parent="1">
          <mxGeometry x="-240" y="210" width="180" height="50" as="geometry" />
        </mxCell>
        <mxCell id="irXWmgbF4XnON0FsWE9v-29" value="STEP-5" style="html=1;overflow=block;blockSpacing=1;whiteSpace=wrap;fontSize=13;spacing=0;strokeOpacity=100;rounded=1;absoluteArcSize=1;arcSize=7.5;fillColor=#ffffff;strokeWidth=1.5;strokeColor=none;lucidId=5.0XDb_Gh1zB;" vertex="1" parent="1">
          <mxGeometry x="288" y="460" width="180" height="50" as="geometry" />
        </mxCell>
        <mxCell id="irXWmgbF4XnON0FsWE9v-30" value="STEP-6" style="html=1;overflow=block;blockSpacing=1;whiteSpace=wrap;fontSize=13;spacing=0;strokeOpacity=100;rounded=1;absoluteArcSize=1;arcSize=7.5;fillColor=#ffffff;strokeWidth=1.5;strokeColor=none;lucidId=8.0XkPIpTpxg;" vertex="1" parent="1">
          <mxGeometry x="230" y="535" width="180" height="50" as="geometry" />
        </mxCell>
        <mxCell id="irXWmgbF4XnON0FsWE9v-31" value="STEP-7" style="html=1;overflow=block;blockSpacing=1;whiteSpace=wrap;fontSize=13;spacing=0;strokeOpacity=100;rounded=1;absoluteArcSize=1;arcSize=7.5;fillColor=#ffffff;strokeWidth=1.5;strokeColor=none;lucidId=~.0XIu4S~j_6;" vertex="1" parent="1">
          <mxGeometry x="310" y="741" width="180" height="50" as="geometry" />
        </mxCell>
        <mxCell id="irXWmgbF4XnON0FsWE9v-32" value="STEP-8" style="html=1;overflow=block;blockSpacing=1;whiteSpace=wrap;fontSize=13;spacing=0;strokeOpacity=100;rounded=1;absoluteArcSize=1;arcSize=7.5;fillColor=#FFFFFF;strokeWidth=1.5;strokeColor=none;lucidId=e~0XomNjal4L;" vertex="1" parent="1">
          <mxGeometry x="-60" y="937" width="180" height="50" as="geometry" />
        </mxCell>
        <mxCell id="irXWmgbF4XnON0FsWE9v-33" value="STEP-9" style="html=1;overflow=block;blockSpacing=1;whiteSpace=wrap;fontSize=13;spacing=0;strokeOpacity=100;rounded=1;absoluteArcSize=1;arcSize=7.5;fillColor=#ffffff;strokeWidth=1.5;strokeColor=none;lucidId=j~0XcFszDcei;" vertex="1" parent="1">
          <mxGeometry x="300" y="1210" width="180" height="50" as="geometry" />
        </mxCell>
        <mxCell id="irXWmgbF4XnON0FsWE9v-34" value="STEP-10" style="html=1;overflow=block;blockSpacing=1;whiteSpace=wrap;fontSize=13;spacing=0;strokeOpacity=100;rounded=1;absoluteArcSize=1;arcSize=7.5;fillColor=#ffffff;strokeWidth=1.5;strokeColor=none;lucidId=m~0XJQMWGHe~;" vertex="1" parent="1">
          <mxGeometry x="590" y="899" width="180" height="50" as="geometry" />
        </mxCell>
        <mxCell id="irXWmgbF4XnON0FsWE9v-35" value="STEP-11" style="html=1;overflow=block;blockSpacing=1;whiteSpace=wrap;fontSize=13;spacing=0;strokeOpacity=100;rounded=1;absoluteArcSize=1;arcSize=7.5;fillColor=#ffffff;strokeWidth=1.5;strokeColor=none;lucidId=q~0XJRMjUZtD;" vertex="1" parent="1">
          <mxGeometry x="480" y="535" width="180" height="50" as="geometry" />
        </mxCell>
        <mxCell id="irXWmgbF4XnON0FsWE9v-36" value="STEP-12" style="html=1;overflow=block;blockSpacing=1;whiteSpace=wrap;fontSize=13;spacing=0;strokeOpacity=100;rounded=1;absoluteArcSize=1;arcSize=7.5;fillColor=#ffffff;strokeWidth=1.5;strokeColor=none;lucidId=u~0XsifJiFnP;" vertex="1" parent="1">
          <mxGeometry x="844" y="949" width="180" height="50" as="geometry" />
        </mxCell>
        <mxCell id="irXWmgbF4XnON0FsWE9v-37" value="&lt;div style=&quot;display: flex; justify-content: center; text-align: center; align-items: baseline; font-size: 0; line-height: 1.25;margin-top: -2px;&quot;&gt;&lt;span&gt;&lt;span style=&quot;font-size:13px;&quot;&gt;insert data to HUB table(&lt;/span&gt;&lt;span style=&quot;font-size:9.3px;color:#e81313;&quot;&gt;gms_us_hub.ref_track_forward_erp_glbl&lt;/span&gt;&lt;span style=&quot;font-size:16px;&quot;&gt;)&lt;/span&gt;&lt;/span&gt;&lt;/div&gt;" style="html=1;overflow=block;blockSpacing=1;whiteSpace=wrap;shape=document;boundedLbl=1;fontSize=13;spacing=0;strokeOpacity=100;fillOpacity=100;rounded=1;absoluteArcSize=1;arcSize=7.5;fillColor=#ffffff;strokeWidth=1.5;lucidId=MT2XirEBpLnc;" vertex="1" parent="1">
          <mxGeometry x="1610" y="564" width="228" height="180" as="geometry" />
        </mxCell>
        <mxCell id="irXWmgbF4XnON0FsWE9v-38" value="" style="html=1;jettySize=18;whiteSpace=wrap;overflow=block;blockSpacing=1;fontSize=13;strokeWidth=1.5;rounded=1;arcSize=10;edgeStyle=orthogonalEdgeStyle;startArrow=none;endArrow=block;endFill=1;exitX=1.003;exitY=0.501;exitPerimeter=0;entryX=-0.003;entryY=0.484;entryPerimeter=0;lucidId=UU2XNwHG~Wk-;" edge="1" parent="1" source="irXWmgbF4XnON0FsWE9v-7" target="irXWmgbF4XnON0FsWE9v-37">
          <mxGeometry width="100" height="100" relative="1" as="geometry">
            <Array as="points" />
          </mxGeometry>
        </mxCell>
        <mxCell id="irXWmgbF4XnON0FsWE9v-39" value="STEP-13" style="html=1;overflow=block;blockSpacing=1;whiteSpace=wrap;fontSize=13;spacing=0;strokeOpacity=100;rounded=1;absoluteArcSize=1;arcSize=7.5;fillColor=#ffffff;strokeWidth=1.5;strokeColor=none;lucidId=1U2XSaPbzKsk;" vertex="1" parent="1">
          <mxGeometry x="1048" y="791" width="180" height="50" as="geometry" />
        </mxCell>
        <mxCell id="irXWmgbF4XnON0FsWE9v-40" value="&lt;div style=&quot;display: flex; justify-content: center; text-align: center; align-items: baseline; font-size: 0; line-height: 1.25;margin-top: -2px;&quot;&gt;&lt;span&gt;&lt;span style=&quot;font-size:8px;color:#0000ff;&quot;&gt;SELECT&lt;/span&gt;&lt;span style=&quot;font-size:8px;color:#3b3b3b;&quot;&gt; substr(&lt;/span&gt;&lt;span style=&quot;font-size:8px;color:#795e26;&quot;&gt;cast&lt;/span&gt;&lt;span style=&quot;font-size:8px;color:#3b3b3b;&quot;&gt;(&lt;/span&gt;&lt;span style=&quot;font-size:8px;color:#795e26;&quot;&gt;MAX&lt;/span&gt;&lt;span style=&quot;font-size:8px;color:#3b3b3b;&quot;&gt;(AUD_LD_DTS) &lt;/span&gt;&lt;span style=&quot;font-size:8px;color:#0000ff;&quot;&gt;as&lt;/span&gt;&lt;span style=&quot;font-size:8px;color:#3b3b3b;&quot;&gt; STRING),&lt;/span&gt;&lt;span style=&quot;font-size:8px;color:#098658;&quot;&gt;1&lt;/span&gt;&lt;span style=&quot;font-size:8px;color:#3b3b3b;&quot;&gt;,&lt;/span&gt;&lt;span style=&quot;font-size:8px;color:#098658;&quot;&gt;10&lt;/span&gt;&lt;span style=&quot;font-size:8px;color:#3b3b3b;&quot;&gt;) &lt;/span&gt;&lt;span style=&quot;font-size:8px;color:#0000ff;&quot;&gt;Date&lt;/span&gt;&lt;span style=&quot;font-size:8px;color:#3b3b3b;&quot;&gt; &lt;/span&gt;&lt;span style=&quot;font-size:8px;color:#0000ff;&quot;&gt;FROM&lt;/span&gt;&lt;span style=&quot;font-size:8px;color:#3b3b3b;&quot;&gt; &lt;/span&gt;&lt;span style=&quot;font-size:8px;color:#bc8e1a;&quot;&gt;gms_us_lake&lt;/span&gt;&lt;span style=&quot;font-size:8px;color:#3b3b3b;&quot;&gt;.&lt;/span&gt;&lt;span style=&quot;font-size:8px;color:#bc8e1a;&quot;&gt;gmsgqddm_jde_f5541tf_inc&lt;/span&gt;&lt;/span&gt;&lt;/div&gt;" style="html=1;overflow=block;blockSpacing=1;whiteSpace=wrap;shape=process;fontSize=13;spacing=0;strokeOpacity=100;fillOpacity=100;rounded=1;absoluteArcSize=1;arcSize=7.5;fillColor=#ffffff;strokeWidth=1.5;lucidId=NbjYxs55l707;" vertex="1" parent="1">
          <mxGeometry x="-1560" y="579.5" width="252" height="144" as="geometry" />
        </mxCell>
        <mxCell id="irXWmgbF4XnON0FsWE9v-41" value="&lt;div style=&quot;display: flex; justify-content: center; text-align: center; align-items: baseline; font-size: 0; line-height: 1.25;margin-top: -2px;&quot;&gt;&lt;span&gt;&lt;span style=&quot;font-size:10px;&quot;&gt;Get the lots&#xa;&lt;/span&gt;&lt;/span&gt;&lt;/div&gt;&lt;div style=&quot;display: flex; justify-content: center; text-align: center; align-items: baseline; font-size: 0; line-height: 1.25;margin-top: -2px;&quot;&gt;&lt;span&gt;&lt;span style=&quot;font-size:10px;&quot;&gt;&lt;span style=&quot;font-size:10px;&quot;&gt; from&#xa; &lt;/span&gt;&lt;span style=&quot;font-size:10px;color:#e81313;&quot;&gt;F4108 and F4111&lt;/span&gt;, which are&#xa;updated/transacted&lt;/span&gt;&lt;span style=&quot;font-size:13px;&quot;&gt;(&lt;/span&gt;&lt;span style=&quot;font-size:7.3px;color:#ce9178;&quot;&gt;SELECT DISTINCT iolotn AS LOT FROM PRODDTA.f4108_adt WHERE ioupmj &amp;gt; 0 AND ioupmj &amp;gt;= UTILS.JUL_FROM_DAY(to_char(to_date(&#39;&lt;/span&gt;&lt;span style=&quot;font-size:7.3px;color:#e81313;&quot;&gt;{Max(aud_ld_dts)}&lt;/span&gt;&lt;span style=&quot;font-size:7.3px;color:#ce9178;&quot;&gt;&#39;, &#39;yyyy-mm-dd&#39;), &#39;ddmmyyyy&#39;)) AND ( iolotn IS NOT NULL OR TRIM(iolotn) IS NOT NULL ) AND trim(iomcu) not in (&#39;HA1&#39;) UNION SELECT DISTINCT illotn AS LOT FROM PRODDTA.f4111 a WHERE ( a.illotn IS NOT NULL OR trim(a.illotn) != &#39;&#39; ) AND a.ILDCT = &#39;IM&#39; AND iltrdj &amp;gt;= UTILS.JUL_FROM_DAY(to_char(to_date(&#39;&lt;/span&gt;&lt;span style=&quot;font-size:7.3px;color:#e81313;&quot;&gt;{Max(aud_ld_dts)}&lt;/span&gt;&lt;span style=&quot;font-size:7.3px;color:#ce9178;&quot;&gt;&#39;, &#39;yyyy-mm-dd&#39;), &#39;ddmmyyyy&#39;)) AND EXISTS ( SELECT 1 FROM PRODDTA.f4108 b WHERE coalesce(b.iolotn, &#39;NA&#39;) = coalesce(a.illotn, &#39;NA&#39;) AND coalesce(b.iolitm, &#39;NA&#39;) = coalesce(a.illitm, &#39;NA&#39;) AND coalesce(b.iomcu, &#39;NA&#39;) = coalesce(a.ilmcu, &#39;NA&#39;) AND ( b.ioua04 = &#39;0&#39; OR b.ioua04 IS NULL ) AND trim(b.iomcu) not in (&#39;HA1&#39;) ) AND trim(a.ilmcu) not in (&#39;HA1&#39;))&quot;&lt;/span&gt;&lt;span style=&quot;font-size:7.3px;color:#cccccc;&quot;&gt;,&lt;/span&gt;&lt;span style=&quot;font-size:7.3px;&quot;&gt;)&lt;/span&gt;&lt;/span&gt;&lt;/div&gt;" style="html=1;overflow=block;blockSpacing=1;whiteSpace=wrap;shape=process;fontSize=13;spacing=0;strokeOpacity=100;fillOpacity=100;rounded=1;absoluteArcSize=1;arcSize=7.5;fillColor=#ffffff;strokeWidth=1.5;lucidId=MdjYs~2qZVwg;" vertex="1" parent="1">
          <mxGeometry x="-1186" y="546.5" width="336" height="209" as="geometry" />
        </mxCell>
        <mxCell id="irXWmgbF4XnON0FsWE9v-42" value="" style="html=1;jettySize=18;whiteSpace=wrap;overflow=block;blockSpacing=1;fontSize=13;strokeWidth=1.5;rounded=1;arcSize=10;edgeStyle=orthogonalEdgeStyle;startArrow=none;endArrow=block;endFill=1;exitX=1.003;exitY=0.5;exitPerimeter=0;entryX=-0.002;entryY=0.5;entryPerimeter=0;lucidId=gfjYZzmx9e7E;" edge="1" parent="1" source="irXWmgbF4XnON0FsWE9v-40" target="irXWmgbF4XnON0FsWE9v-41">
          <mxGeometry width="100" height="100" relative="1" as="geometry">
            <Array as="points" />
          </mxGeometry>
        </mxCell>
        <mxCell id="irXWmgbF4XnON0FsWE9v-43" value="" style="html=1;jettySize=18;whiteSpace=wrap;overflow=block;blockSpacing=1;fontSize=13;strokeWidth=1.5;rounded=1;arcSize=10;edgeStyle=orthogonalEdgeStyle;startArrow=none;endArrow=block;endFill=1;exitX=1.002;exitY=0.5;exitPerimeter=0;entryX=-0.004;entryY=0.5;entryPerimeter=0;lucidId=nfjYdDZEQNsE;" edge="1" parent="1" source="irXWmgbF4XnON0FsWE9v-41" target="irXWmgbF4XnON0FsWE9v-1">
          <mxGeometry width="100" height="100" relative="1" as="geometry">
            <Array as="points" />
          </mxGeometry>
        </mxCell>
        <mxCell id="irXWmgbF4XnON0FsWE9v-112" style="edgeStyle=orthogonalEdgeStyle;rounded=0;orthogonalLoop=1;jettySize=auto;html=1;exitX=1;exitY=0.5;exitDx=0;exitDy=0;entryX=0;entryY=0.5;entryDx=0;entryDy=0;" edge="1" parent="1" source="irXWmgbF4XnON0FsWE9v-44" target="irXWmgbF4XnON0FsWE9v-113">
          <mxGeometry relative="1" as="geometry" />
        </mxCell>
        <mxCell id="irXWmgbF4XnON0FsWE9v-44" value="&lt;div style=&quot;display: flex; justify-content: center; text-align: center; align-items: baseline; font-size: 0; line-height: 1.25;margin-top: -2px;&quot;&gt;&lt;span&gt;&lt;span style=&quot;font-size:13px;&quot;&gt;insert data to &lt;font color=&quot;#ff3333&quot;&gt;temp lots table to use in TF&lt;/font&gt;&lt;/span&gt;&lt;/span&gt;&lt;/div&gt;" style="html=1;overflow=block;blockSpacing=1;whiteSpace=wrap;shape=document;boundedLbl=1;fontSize=13;spacing=0;strokeOpacity=100;fillOpacity=100;rounded=1;absoluteArcSize=1;arcSize=7.5;fillColor=#ffffff;strokeWidth=1.5;lucidId=UP0XvqFEvbbz;" vertex="1" parent="1">
          <mxGeometry x="820" y="949" width="228" height="180" as="geometry" />
        </mxCell>
        <mxCell id="irXWmgbF4XnON0FsWE9v-48" style="edgeStyle=orthogonalEdgeStyle;rounded=0;orthogonalLoop=1;jettySize=auto;html=1;exitX=0.5;exitY=1;exitDx=0;exitDy=0;entryX=0.5;entryY=0;entryDx=0;entryDy=0;" edge="1" parent="1" source="irXWmgbF4XnON0FsWE9v-46" target="irXWmgbF4XnON0FsWE9v-44">
          <mxGeometry relative="1" as="geometry" />
        </mxCell>
        <mxCell id="irXWmgbF4XnON0FsWE9v-46" value="&lt;div style=&quot;display: flex; justify-content: center; text-align: center; align-items: baseline; font-size: 0; line-height: 1.25;margin-top: -2px;&quot;&gt;&lt;span&gt;&lt;span style=&quot;font-size:13px;&quot;&gt;&lt;span style=&quot;font-size:13px;&quot;&gt;create a dataframe with list of &lt;font color=&quot;#ff3333&quot;&gt;distinct trflots and trlotn&lt;/font&gt; lots&amp;nbsp;&amp;nbsp;&lt;/span&gt;&lt;/span&gt;&lt;/span&gt;&lt;/div&gt;" style="html=1;overflow=block;blockSpacing=1;whiteSpace=wrap;shape=process;fontSize=13;spacing=0;strokeOpacity=100;fillOpacity=100;rounded=1;absoluteArcSize=1;arcSize=7.5;fillColor=#ffffff;strokeWidth=1.5;lucidId=930X0cL3SkqX;" vertex="1" parent="1">
          <mxGeometry x="832" y="744" width="204" height="114" as="geometry" />
        </mxCell>
        <mxCell id="irXWmgbF4XnON0FsWE9v-51" style="edgeStyle=orthogonalEdgeStyle;rounded=0;orthogonalLoop=1;jettySize=auto;html=1;exitX=1;exitY=0.5;exitDx=0;exitDy=0;entryX=0;entryY=0.5;entryDx=0;entryDy=0;" edge="1" parent="1" source="irXWmgbF4XnON0FsWE9v-50" target="irXWmgbF4XnON0FsWE9v-44">
          <mxGeometry relative="1" as="geometry" />
        </mxCell>
        <mxCell id="irXWmgbF4XnON0FsWE9v-50" value="&lt;div style=&quot;display: flex; justify-content: center; text-align: center; align-items: baseline; font-size: 0; line-height: 1.25;margin-top: -2px;&quot;&gt;&lt;span&gt;&lt;span style=&quot;font-size:13px;&quot;&gt;&lt;span style=&quot;font-size:13px;&quot;&gt;create a dataframe with list of &lt;font color=&quot;#ff3333&quot;&gt;distinct valid&lt;/font&gt; lots&amp;nbsp;&amp;nbsp;&lt;/span&gt;&lt;/span&gt;&lt;/span&gt;&lt;/div&gt;" style="html=1;overflow=block;blockSpacing=1;whiteSpace=wrap;shape=process;fontSize=13;spacing=0;strokeOpacity=100;fillOpacity=100;rounded=1;absoluteArcSize=1;arcSize=7.5;fillColor=#ffffff;strokeWidth=1.5;lucidId=930X0cL3SkqX;" vertex="1" parent="1">
          <mxGeometry x="440" y="1314" width="204" height="114" as="geometry" />
        </mxCell>
        <mxCell id="irXWmgbF4XnON0FsWE9v-52" value="STEP-12" style="html=1;overflow=block;blockSpacing=1;whiteSpace=wrap;fontSize=13;spacing=0;strokeOpacity=100;rounded=1;absoluteArcSize=1;arcSize=7.5;fillColor=#ffffff;strokeWidth=1.5;strokeColor=none;lucidId=1U2XSaPbzKsk;" vertex="1" parent="1">
          <mxGeometry x="1048" y="791" width="180" height="50" as="geometry" />
        </mxCell>
        <mxCell id="irXWmgbF4XnON0FsWE9v-53" value="STEP-14" style="html=1;overflow=block;blockSpacing=1;whiteSpace=wrap;fontSize=13;spacing=0;strokeOpacity=100;rounded=1;absoluteArcSize=1;arcSize=7.5;fillColor=#ffffff;strokeWidth=1.5;strokeColor=none;lucidId=1U2XSaPbzKsk;" vertex="1" parent="1">
          <mxGeometry x="1000" y="887" width="180" height="50" as="geometry" />
        </mxCell>
        <mxCell id="irXWmgbF4XnON0FsWE9v-54" value="STEP-15" style="html=1;overflow=block;blockSpacing=1;whiteSpace=wrap;fontSize=13;spacing=0;strokeOpacity=100;rounded=1;absoluteArcSize=1;arcSize=7.5;fillColor=#ffffff;strokeWidth=1.5;strokeColor=none;lucidId=1U2XSaPbzKsk;" vertex="1" parent="1">
          <mxGeometry x="1194" y="480" width="180" height="50" as="geometry" />
        </mxCell>
        <mxCell id="irXWmgbF4XnON0FsWE9v-55" value="STEP-16" style="html=1;overflow=block;blockSpacing=1;whiteSpace=wrap;fontSize=13;spacing=0;strokeOpacity=100;rounded=1;absoluteArcSize=1;arcSize=7.5;fillColor=#ffffff;strokeWidth=1.5;strokeColor=none;lucidId=1U2XSaPbzKsk;" vertex="1" parent="1">
          <mxGeometry x="1620" y="460" width="180" height="50" as="geometry" />
        </mxCell>
        <mxCell id="irXWmgbF4XnON0FsWE9v-59" value="&lt;div style=&quot;display: flex; justify-content: center; text-align: center; align-items: baseline; font-size: 0; line-height: 1.25;margin-top: -2px;&quot;&gt;&lt;span&gt;&lt;span style=&quot;font-size:13px;&quot;&gt;&lt;span style=&quot;font-size:13px;&quot;&gt;Input &lt;/span&gt;&lt;span style=&quot;font-size:13px;color:#e81313;&quot;&gt;valid&lt;/span&gt; lots&lt;/span&gt;&lt;/span&gt;&lt;/div&gt;" style="html=1;overflow=block;blockSpacing=1;whiteSpace=wrap;shape=document;boundedLbl=1;fontSize=13;spacing=0;strokeOpacity=100;rounded=1;absoluteArcSize=1;arcSize=7.5;fillColor=#ffffff;strokeWidth=1.5;lucidId=HM0Xejd4tUo4;" vertex="1" parent="1">
          <mxGeometry x="2390" y="985" width="168" height="108" as="geometry" />
        </mxCell>
        <mxCell id="irXWmgbF4XnON0FsWE9v-60" value="&lt;div style=&quot;display: flex; justify-content: center; text-align: center; align-items: baseline; font-size: 0; line-height: 1.25;margin-top: -2px;&quot;&gt;&lt;span&gt;&lt;span style=&quot;font-size:13px;&quot;&gt;&lt;span style=&quot;font-size:13px;&quot;&gt;SELECT * FROM &lt;/span&gt;&lt;span style=&quot;font-size:13px;color:#e81313;&quot;&gt;PRODDTA.f5541tb&amp;nbsp;&lt;/span&gt;&lt;span style=&quot;font-size:13px;&quot;&gt;WHERE trim(tcflot) IN ({&#39;&lt;/span&gt;&lt;span style=&quot;font-size:13px;color:#e81313;&quot;&gt;valid Lots&lt;/span&gt;&#39;}) AND TRIM(tcflot) IS NOT NULL AND tclotn IS NOT NULL AND TRIM(TcMCUF) NOT IN (&#39;HA1&#39;)) Consolidate results into a DataFrame (inc_df)&lt;/span&gt;&lt;/span&gt;&lt;/div&gt;" style="html=1;overflow=block;blockSpacing=1;whiteSpace=wrap;shape=process;fontSize=13;spacing=0;strokeOpacity=100;fillOpacity=100;rounded=1;absoluteArcSize=1;arcSize=7.5;fillColor=#ffffff;strokeWidth=1.5;lucidId=EN0XXESsbe9Y;" vertex="1" parent="1">
          <mxGeometry x="2670" y="948.5" width="350" height="180" as="geometry" />
        </mxCell>
        <mxCell id="irXWmgbF4XnON0FsWE9v-61" value="&lt;div style=&quot;display: flex; justify-content: center; text-align: center; align-items: baseline; font-size: 0; line-height: 1.25;margin-top: -2px;&quot;&gt;&lt;span&gt;&lt;span style=&quot;font-size:13px;&quot;&gt;&lt;span style=&quot;font-size:13px;&quot;&gt;Extract values of &lt;/span&gt;&lt;span style=&quot;font-size:13px;color:#e81313;&quot;&gt;TcLOTN&lt;/span&gt;&lt;span style=&quot;font-size:13px;&quot;&gt; and create a list of valid lots (child_lots) from DataFrame &lt;/span&gt;&lt;span style=&quot;font-size:13px;color:#e81313;&quot;&gt;(inc_df)&lt;/span&gt;&lt;/span&gt;&lt;/span&gt;&lt;/div&gt;" style="html=1;overflow=block;blockSpacing=1;whiteSpace=wrap;shape=process;fontSize=13;spacing=0;strokeOpacity=100;fillOpacity=100;rounded=1;absoluteArcSize=1;arcSize=7.5;fillColor=#ffffff;strokeWidth=1.5;lucidId=VN0XKzcY-zDv;" vertex="1" parent="1">
          <mxGeometry x="2725" y="663.5" width="240" height="120" as="geometry" />
        </mxCell>
        <mxCell id="irXWmgbF4XnON0FsWE9v-62" value="&lt;div style=&quot;display: flex; justify-content: center; text-align: center; align-items: baseline; font-size: 0; line-height: 1.25;margin-top: -2px;&quot;&gt;&lt;span&gt;&lt;span style=&quot;font-size:13px;&quot;&gt;&lt;span style=&quot;font-size:13px;&quot;&gt;SELECT * FROM &lt;/span&gt;&lt;span style=&quot;font-size:13px;color:#e81313;&quot;&gt;PRODDTA.f5541tb&lt;/span&gt;&lt;span style=&quot;font-size:13px;&quot;&gt;&amp;nbsp;WHERE trim(tcflot) IN ({&#39;&lt;/span&gt;&lt;span style=&quot;font-size:13px;color:#e81313;&quot;&gt;child_lots&lt;/span&gt;&lt;span style=&quot;font-size:13px;&quot;&gt;&#39;}) AND TRIM(tcflot) IS NOT NULL AND tclotn IS NOT NULL AND TRIM(TcMCUF) NOT IN (&#39;HA1&#39;)) Consolidate results into a DataFrame &lt;/span&gt;&lt;span style=&quot;font-size:13px;color:#e81313;&quot;&gt;(reprocess df)&lt;/span&gt;&lt;/span&gt;&lt;/span&gt;&lt;/div&gt;" style="html=1;overflow=block;blockSpacing=1;whiteSpace=wrap;shape=process;fontSize=13;spacing=0;strokeOpacity=100;fillOpacity=100;rounded=1;absoluteArcSize=1;arcSize=7.5;fillColor=#ffffff;strokeWidth=1.5;lucidId=YN0XIC7FynBe;" vertex="1" parent="1">
          <mxGeometry x="3066" y="627.5" width="360" height="204" as="geometry" />
        </mxCell>
        <mxCell id="irXWmgbF4XnON0FsWE9v-63" value="&lt;div style=&quot;display: flex; justify-content: center; text-align: center; align-items: baseline; font-size: 0; line-height: 1.25;margin-top: -2px;&quot;&gt;&lt;span&gt;&lt;span style=&quot;font-size:13px;&quot;&gt;&lt;span style=&quot;font-size:13px;&quot;&gt;Combine results from &lt;/span&gt;&lt;span style=&quot;font-size:13px;color:#e81313;&quot;&gt;Step 3&lt;/span&gt;&lt;span style=&quot;font-size:13px;&quot;&gt; and &lt;/span&gt;&lt;span style=&quot;font-size:13px;color:#e81313;&quot;&gt;step 5&lt;/span&gt;&lt;span style=&quot;font-size:13px;&quot;&gt; into a final DataFrame &lt;/span&gt;&lt;span style=&quot;font-size:13px;color:#e81313;&quot;&gt;(lake_df).&lt;/span&gt;&lt;/span&gt;&lt;/span&gt;&lt;/div&gt;" style="html=1;overflow=block;blockSpacing=1;whiteSpace=wrap;shape=process;fontSize=13;spacing=0;strokeOpacity=100;fillOpacity=100;rounded=1;absoluteArcSize=1;arcSize=7.5;fillColor=#ffffff;strokeWidth=1.5;lucidId=SO0XU.fqqX2I;" vertex="1" parent="1">
          <mxGeometry x="3144" y="985" width="204" height="102" as="geometry" />
        </mxCell>
        <mxCell id="irXWmgbF4XnON0FsWE9v-64" value="&lt;div style=&quot;display: flex; justify-content: center; text-align: center; align-items: baseline; font-size: 0; line-height: 1.25;margin-top: -2px;&quot;&gt;&lt;span&gt;&lt;span style=&quot;font-size:13px;color:#e81313;&quot;&gt;insert/update&lt;/span&gt;&lt;span style=&quot;font-size:13px;&quot;&gt; data into&lt;/span&gt;&lt;span style=&quot;font-size:13px;color:#e81313;&quot;&gt; reprocessing log&lt;/span&gt;&lt;span style=&quot;font-size:13px;&quot;&gt; table&lt;/span&gt;&lt;/span&gt;&lt;/div&gt;" style="html=1;overflow=block;blockSpacing=1;whiteSpace=wrap;shape=document;boundedLbl=1;fontSize=13;spacing=0;strokeOpacity=100;rounded=1;absoluteArcSize=1;arcSize=7.5;fillColor=#ffffff;strokeWidth=1.5;lucidId=oP0XrluznzYb;" vertex="1" parent="1">
          <mxGeometry x="3168" y="1587.5" width="156" height="114" as="geometry" />
        </mxCell>
        <mxCell id="irXWmgbF4XnON0FsWE9v-65" value="&lt;div style=&quot;display: flex; justify-content: center; text-align: center; align-items: baseline; font-size: 0; line-height: 1.25;margin-top: -2px;&quot;&gt;&lt;span&gt;&lt;span style=&quot;font-size:13px;&quot;&gt;insert data to lake table(&lt;/span&gt;&lt;span style=&quot;font-size:1.7px;&quot;&gt;(&lt;/span&gt;&lt;span style=&quot;font-size:9.3px;color:#e81313;&quot;&gt;gms_us_lake.gmsgqddm_jde_f5541tf_inc&lt;/span&gt;&lt;span style=&quot;font-size:9.3px;&quot;&gt;)&lt;/span&gt;&lt;/span&gt;&lt;/div&gt;" style="html=1;overflow=block;blockSpacing=1;whiteSpace=wrap;shape=document;boundedLbl=1;fontSize=13;spacing=0;strokeOpacity=100;fillOpacity=100;rounded=1;absoluteArcSize=1;arcSize=7.5;fillColor=#ffffff;strokeWidth=1.5;lucidId=UP0XvqFEvbbz;" vertex="1" parent="1">
          <mxGeometry x="3970" y="946" width="228" height="180" as="geometry" />
        </mxCell>
        <mxCell id="irXWmgbF4XnON0FsWE9v-66" value="&lt;div style=&quot;display: flex; justify-content: center; text-align: center; align-items: baseline; font-size: 0; line-height: 1.25;margin-top: -2px;&quot;&gt;&lt;span&gt;&lt;span style=&quot;font-size:13px;&quot;&gt;&lt;span style=&quot;font-size:13px;&quot;&gt;Extract values of &lt;/span&gt;&lt;span style=&quot;font-size:13px;color:#e81313;&quot;&gt;tcflot&lt;/span&gt;&lt;span style=&quot;font-size:13px;&quot;&gt; and create a list of &lt;/span&gt;&lt;span style=&quot;font-size:13px;color:#e81313;&quot;&gt;processed lots &lt;/span&gt;&lt;span style=&quot;font-size:13px;&quot;&gt; from DataFrame &lt;/span&gt;&lt;span style=&quot;font-size:13px;color:#e81313;&quot;&gt;(lake_df)&lt;/span&gt;&lt;/span&gt;&lt;/span&gt;&lt;/div&gt;" style="html=1;overflow=block;blockSpacing=1;whiteSpace=wrap;shape=process;fontSize=13;spacing=0;strokeOpacity=100;fillOpacity=100;rounded=1;absoluteArcSize=1;arcSize=7.5;fillColor=#ffffff;strokeWidth=1.5;lucidId=4Z0XZ25a2CZ6;" vertex="1" parent="1">
          <mxGeometry x="3144" y="1191.5" width="204" height="102" as="geometry" />
        </mxCell>
        <mxCell id="irXWmgbF4XnON0FsWE9v-67" value="&lt;div style=&quot;display: flex; justify-content: center; align-items: baseline; line-height: 1.25; margin-top: -2px;&quot;&gt;&lt;font style=&quot;&quot;&gt;&lt;font style=&quot;font-size: 12px;&quot;&gt;compare &lt;font color=&quot;#ff3333&quot;&gt;processed lots&lt;/font&gt; and &lt;font color=&quot;#ff3333&quot;&gt;valid lots&amp;nbsp;&lt;/font&gt;&lt;br&gt;to identify to identify Not processed lots&lt;br&gt;&lt;/font&gt;&lt;/font&gt;&lt;/div&gt;" style="html=1;overflow=block;blockSpacing=1;whiteSpace=wrap;rhombus;fontSize=13;spacing=0;strokeOpacity=100;fillOpacity=100;rounded=1;absoluteArcSize=1;arcSize=7.5;fillColor=#ffffff;strokeWidth=1.5;lucidId=-00Xp6UZX-Uo;align=center;" vertex="1" parent="1">
          <mxGeometry x="3114.5" y="1336.5" width="263" height="190" as="geometry" />
        </mxCell>
        <mxCell id="irXWmgbF4XnON0FsWE9v-69" value="&lt;div style=&quot;display: flex; justify-content: center; text-align: center; align-items: baseline; font-size: 0; line-height: 1.25;margin-top: -2px;&quot;&gt;&lt;span&gt;&lt;span style=&quot;font-size:13px;&quot;&gt;&lt;span style=&quot;font-size:13px;&quot;&gt;Combine results from &lt;/span&gt;&lt;span style=&quot;font-size:13px;color:#e81313;&quot;&gt;Steps 6 and 10&lt;/span&gt;&lt;span style=&quot;font-size:13px;&quot;&gt; into a final DataFrame &lt;/span&gt;&lt;span style=&quot;font-size:13px;color:#e81313;&quot;&gt;(lake_df).&lt;/span&gt;&lt;/span&gt;&lt;/span&gt;&lt;/div&gt;" style="html=1;overflow=block;blockSpacing=1;whiteSpace=wrap;shape=process;fontSize=13;spacing=0;strokeColor=#e81313;strokeOpacity=100;fillOpacity=100;rounded=1;absoluteArcSize=1;arcSize=7.5;fillColor=#ffffff;strokeWidth=1.5;lucidId=D30XaaJnFZfR;" vertex="1" parent="1">
          <mxGeometry x="3510" y="985" width="204" height="102" as="geometry" />
        </mxCell>
        <mxCell id="irXWmgbF4XnON0FsWE9v-70" value="&lt;div style=&quot;display: flex; justify-content: center; text-align: center; align-items: baseline; font-size: 0; line-height: 1.25;margin-top: -2px;&quot;&gt;&lt;span&gt;&lt;span style=&quot;font-size:13px;&quot;&gt;&lt;span style=&quot;font-size:13px;&quot;&gt;create DataFrames rehased data if any data processed&lt;/span&gt;&lt;span style=&quot;font-size:13px;color:#e81313;&quot;&gt;(rehashed_df)&lt;/span&gt;&lt;/span&gt;&lt;/span&gt;&lt;/div&gt;" style="html=1;overflow=block;blockSpacing=1;whiteSpace=wrap;shape=process;fontSize=13;spacing=0;strokeOpacity=100;fillOpacity=100;rounded=1;absoluteArcSize=1;arcSize=7.5;fillColor=#ffffff;strokeWidth=1.5;lucidId=930X0cL3SkqX;" vertex="1" parent="1">
          <mxGeometry x="3510" y="1374.5" width="204" height="114" as="geometry" />
        </mxCell>
        <mxCell id="irXWmgbF4XnON0FsWE9v-71" value="" style="html=1;jettySize=18;whiteSpace=wrap;overflow=block;blockSpacing=1;fontSize=13;strokeWidth=1.5;rounded=1;arcSize=10;edgeStyle=orthogonalEdgeStyle;startArrow=none;endArrow=block;endFill=1;exitX=1.004;exitY=0.501;exitPerimeter=0;entryX=-0.002;entryY=0.5;entryPerimeter=0;lucidId=H60X2R8GXBZb;" edge="1" parent="1" source="irXWmgbF4XnON0FsWE9v-59" target="irXWmgbF4XnON0FsWE9v-60">
          <mxGeometry width="100" height="100" relative="1" as="geometry">
            <Array as="points" />
          </mxGeometry>
        </mxCell>
        <mxCell id="irXWmgbF4XnON0FsWE9v-72" value="" style="html=1;jettySize=18;whiteSpace=wrap;overflow=block;blockSpacing=1;fontSize=13;strokeWidth=1.5;rounded=1;arcSize=10;edgeStyle=orthogonalEdgeStyle;startArrow=none;endArrow=block;endFill=1;exitX=0.5;exitY=-0.004;exitPerimeter=0;entryX=0.5;entryY=1.006;entryPerimeter=0;lucidId=P60XYDCTpquX;" edge="1" parent="1" source="irXWmgbF4XnON0FsWE9v-60" target="irXWmgbF4XnON0FsWE9v-61">
          <mxGeometry width="100" height="100" relative="1" as="geometry">
            <Array as="points" />
          </mxGeometry>
        </mxCell>
        <mxCell id="irXWmgbF4XnON0FsWE9v-73" value="" style="html=1;jettySize=18;whiteSpace=wrap;overflow=block;blockSpacing=1;fontSize=13;strokeWidth=1.5;rounded=1;arcSize=10;edgeStyle=orthogonalEdgeStyle;startArrow=none;endArrow=block;endFill=1;exitX=1.003;exitY=0.5;exitPerimeter=0;entryX=-0.002;entryY=0.471;entryPerimeter=0;lucidId=060XTj1y384~;" edge="1" parent="1" source="irXWmgbF4XnON0FsWE9v-61" target="irXWmgbF4XnON0FsWE9v-62">
          <mxGeometry width="100" height="100" relative="1" as="geometry">
            <Array as="points" />
          </mxGeometry>
        </mxCell>
        <mxCell id="irXWmgbF4XnON0FsWE9v-74" value="" style="html=1;jettySize=18;whiteSpace=wrap;overflow=block;blockSpacing=1;fontSize=13;strokeWidth=1.5;rounded=1;arcSize=10;edgeStyle=orthogonalEdgeStyle;startArrow=none;endArrow=block;endFill=1;exitX=0.5;exitY=1.004;exitPerimeter=0;entryX=0.5;entryY=-0.007;entryPerimeter=0;lucidId=460Xst6l0HKW;" edge="1" parent="1" source="irXWmgbF4XnON0FsWE9v-62" target="irXWmgbF4XnON0FsWE9v-63">
          <mxGeometry width="100" height="100" relative="1" as="geometry">
            <Array as="points" />
          </mxGeometry>
        </mxCell>
        <mxCell id="irXWmgbF4XnON0FsWE9v-75" value="" style="html=1;jettySize=18;whiteSpace=wrap;overflow=block;blockSpacing=1;fontSize=13;strokeWidth=1.5;rounded=1;arcSize=10;edgeStyle=orthogonalEdgeStyle;startArrow=none;endArrow=block;endFill=1;exitX=1.002;exitY=0.5;exitPerimeter=0;entryX=-0.004;entryY=0.529;entryPerimeter=0;lucidId=-60XFMZgzzUw;" edge="1" parent="1" source="irXWmgbF4XnON0FsWE9v-60" target="irXWmgbF4XnON0FsWE9v-63">
          <mxGeometry width="100" height="100" relative="1" as="geometry">
            <Array as="points" />
          </mxGeometry>
        </mxCell>
        <mxCell id="irXWmgbF4XnON0FsWE9v-76" value="" style="html=1;jettySize=18;whiteSpace=wrap;overflow=block;blockSpacing=1;fontSize=13;strokeWidth=1.5;rounded=1;arcSize=10;edgeStyle=orthogonalEdgeStyle;startArrow=none;endArrow=block;endFill=1;exitX=0.5;exitY=1.007;exitPerimeter=0;entryX=0.5;entryY=-0.007;entryPerimeter=0;lucidId=e70XMPJT1pXC;" edge="1" parent="1" source="irXWmgbF4XnON0FsWE9v-63" target="irXWmgbF4XnON0FsWE9v-66">
          <mxGeometry width="100" height="100" relative="1" as="geometry">
            <Array as="points" />
          </mxGeometry>
        </mxCell>
        <mxCell id="irXWmgbF4XnON0FsWE9v-77" value="" style="html=1;jettySize=18;whiteSpace=wrap;overflow=block;blockSpacing=1;fontSize=13;strokeWidth=1.5;rounded=1;arcSize=10;edgeStyle=orthogonalEdgeStyle;startArrow=none;endArrow=block;endFill=1;entryX=0.005;entryY=0.5;entryPerimeter=0;lucidId=j70XNJQvM89U;exitX=1;exitY=0.5;exitDx=0;exitDy=0;" edge="1" parent="1" source="irXWmgbF4XnON0FsWE9v-59" target="irXWmgbF4XnON0FsWE9v-67">
          <mxGeometry width="100" height="100" relative="1" as="geometry">
            <Array as="points">
              <mxPoint x="2600" y="1038.5" />
              <mxPoint x="2600" y="1431.5" />
            </Array>
            <mxPoint x="2470" y="1084.5" as="sourcePoint" />
          </mxGeometry>
        </mxCell>
        <mxCell id="irXWmgbF4XnON0FsWE9v-78" value="" style="html=1;jettySize=18;whiteSpace=wrap;overflow=block;blockSpacing=1;fontSize=13;strokeWidth=1.5;rounded=1;arcSize=10;edgeStyle=orthogonalEdgeStyle;startArrow=none;endArrow=block;endFill=1;exitX=0.5;exitY=1.007;exitPerimeter=0;entryX=0.5;entryY=0.002;entryPerimeter=0;lucidId=C80XBHqNr_fK;" edge="1" parent="1" source="irXWmgbF4XnON0FsWE9v-66" target="irXWmgbF4XnON0FsWE9v-67">
          <mxGeometry width="100" height="100" relative="1" as="geometry">
            <Array as="points" />
          </mxGeometry>
        </mxCell>
        <mxCell id="irXWmgbF4XnON0FsWE9v-79" value="" style="html=1;jettySize=18;whiteSpace=wrap;overflow=block;blockSpacing=1;fontSize=13;strokeWidth=1.5;rounded=1;arcSize=10;edgeStyle=orthogonalEdgeStyle;startArrow=none;endArrow=block;endFill=1;exitX=0.5;exitY=0.998;exitPerimeter=0;entryX=0.5;entryY=-0.007;entryPerimeter=0;lucidId=780XAX_ksfXo;" edge="1" parent="1" source="irXWmgbF4XnON0FsWE9v-67" target="irXWmgbF4XnON0FsWE9v-64">
          <mxGeometry width="100" height="100" relative="1" as="geometry">
            <Array as="points" />
          </mxGeometry>
        </mxCell>
        <mxCell id="irXWmgbF4XnON0FsWE9v-80" value="" style="html=1;jettySize=18;whiteSpace=wrap;overflow=block;blockSpacing=1;fontSize=13;strokeWidth=1.5;rounded=1;arcSize=10;edgeStyle=orthogonalEdgeStyle;startArrow=none;endArrow=block;endFill=1;exitX=0.995;exitY=0.5;exitPerimeter=0;entryX=-0.004;entryY=0.5;entryPerimeter=0;lucidId=j90XVlHCMra-;" edge="1" parent="1" source="irXWmgbF4XnON0FsWE9v-67" target="irXWmgbF4XnON0FsWE9v-70">
          <mxGeometry width="100" height="100" relative="1" as="geometry">
            <Array as="points" />
          </mxGeometry>
        </mxCell>
        <mxCell id="irXWmgbF4XnON0FsWE9v-81" value="" style="html=1;jettySize=18;whiteSpace=wrap;overflow=block;blockSpacing=1;fontSize=13;strokeWidth=1.5;rounded=1;arcSize=10;edgeStyle=orthogonalEdgeStyle;startArrow=none;endArrow=block;endFill=1;exitX=1.004;exitY=0.5;exitPerimeter=0;entryX=-0.004;entryY=0.5;entryPerimeter=0;lucidId=z90XpxgbbMBp;" edge="1" parent="1" source="irXWmgbF4XnON0FsWE9v-63" target="irXWmgbF4XnON0FsWE9v-69">
          <mxGeometry width="100" height="100" relative="1" as="geometry">
            <Array as="points" />
          </mxGeometry>
        </mxCell>
        <mxCell id="irXWmgbF4XnON0FsWE9v-82" value="" style="html=1;jettySize=18;whiteSpace=wrap;overflow=block;blockSpacing=1;fontSize=13;strokeWidth=1.5;rounded=1;arcSize=10;edgeStyle=orthogonalEdgeStyle;startArrow=none;endArrow=block;endFill=1;exitX=0.5;exitY=-0.007;exitPerimeter=0;entryX=0.5;entryY=1.007;entryPerimeter=0;lucidId=D90X0wuZ-aKF;" edge="1" parent="1" source="irXWmgbF4XnON0FsWE9v-70" target="irXWmgbF4XnON0FsWE9v-69">
          <mxGeometry width="100" height="100" relative="1" as="geometry">
            <Array as="points" />
          </mxGeometry>
        </mxCell>
        <mxCell id="irXWmgbF4XnON0FsWE9v-83" value="" style="html=1;jettySize=18;whiteSpace=wrap;overflow=block;blockSpacing=1;fontSize=13;strokeWidth=1.5;rounded=1;arcSize=10;edgeStyle=orthogonalEdgeStyle;startArrow=none;endArrow=block;endFill=1;exitX=1.004;exitY=0.5;exitPerimeter=0;entryX=-0.003;entryY=0.5;entryPerimeter=0;lucidId=O90XbjlRAvQq;" edge="1" parent="1" source="irXWmgbF4XnON0FsWE9v-69" target="irXWmgbF4XnON0FsWE9v-65">
          <mxGeometry width="100" height="100" relative="1" as="geometry">
            <Array as="points" />
          </mxGeometry>
        </mxCell>
        <mxCell id="irXWmgbF4XnON0FsWE9v-84" value="STEP-1" style="html=1;overflow=block;blockSpacing=1;whiteSpace=wrap;fontSize=13;spacing=0;strokeOpacity=100;rounded=1;absoluteArcSize=1;arcSize=7.5;fillColor=#ffffff;strokeWidth=1.5;strokeColor=none;lucidId=H.0XKU32zUTg;" vertex="1" parent="1">
          <mxGeometry x="2260" y="738.5" width="180" height="45" as="geometry" />
        </mxCell>
        <mxCell id="irXWmgbF4XnON0FsWE9v-85" value="STEP-2" style="html=1;overflow=block;blockSpacing=1;whiteSpace=wrap;fontSize=13;spacing=0;strokeOpacity=100;rounded=1;absoluteArcSize=1;arcSize=7.5;fillColor=#ffffff;strokeWidth=1.5;strokeColor=none;lucidId=Q.0XkjESWLVG;" vertex="1" parent="1">
          <mxGeometry x="2418" y="927.5" width="180" height="50" as="geometry" />
        </mxCell>
        <mxCell id="irXWmgbF4XnON0FsWE9v-86" value="STEP-3" style="html=1;overflow=block;blockSpacing=1;whiteSpace=wrap;fontSize=13;spacing=0;strokeOpacity=100;rounded=1;absoluteArcSize=1;arcSize=7.5;fillColor=#ffffff;strokeWidth=1.5;strokeColor=none;lucidId=V.0Xpbn~p3YC;" vertex="1" parent="1">
          <mxGeometry x="2850" y="881.5" width="180" height="50" as="geometry" />
        </mxCell>
        <mxCell id="irXWmgbF4XnON0FsWE9v-87" value="STEP-4" style="html=1;overflow=block;blockSpacing=1;whiteSpace=wrap;fontSize=13;spacing=0;strokeOpacity=100;rounded=1;absoluteArcSize=1;arcSize=7.5;fillColor=#ffffff;strokeWidth=1.5;strokeColor=none;lucidId=Z.0X7BbVY8fb;" vertex="1" parent="1">
          <mxGeometry x="2790" y="597.5" width="180" height="50" as="geometry" />
        </mxCell>
        <mxCell id="irXWmgbF4XnON0FsWE9v-88" value="STEP-5" style="html=1;overflow=block;blockSpacing=1;whiteSpace=wrap;fontSize=13;spacing=0;strokeOpacity=100;rounded=1;absoluteArcSize=1;arcSize=7.5;fillColor=#ffffff;strokeWidth=1.5;strokeColor=none;lucidId=5.0XDb_Gh1zB;" vertex="1" parent="1">
          <mxGeometry x="3318" y="847.5" width="180" height="50" as="geometry" />
        </mxCell>
        <mxCell id="irXWmgbF4XnON0FsWE9v-89" value="STEP-6" style="html=1;overflow=block;blockSpacing=1;whiteSpace=wrap;fontSize=13;spacing=0;strokeOpacity=100;rounded=1;absoluteArcSize=1;arcSize=7.5;fillColor=#ffffff;strokeWidth=1.5;strokeColor=none;lucidId=8.0XkPIpTpxg;" vertex="1" parent="1">
          <mxGeometry x="3260" y="922.5" width="180" height="50" as="geometry" />
        </mxCell>
        <mxCell id="irXWmgbF4XnON0FsWE9v-90" value="STEP-7" style="html=1;overflow=block;blockSpacing=1;whiteSpace=wrap;fontSize=13;spacing=0;strokeOpacity=100;rounded=1;absoluteArcSize=1;arcSize=7.5;fillColor=#ffffff;strokeWidth=1.5;strokeColor=none;lucidId=~.0XIu4S~j_6;" vertex="1" parent="1">
          <mxGeometry x="3340" y="1128.5" width="180" height="50" as="geometry" />
        </mxCell>
        <mxCell id="irXWmgbF4XnON0FsWE9v-91" value="STEP-8" style="html=1;overflow=block;blockSpacing=1;whiteSpace=wrap;fontSize=13;spacing=0;strokeOpacity=100;rounded=1;absoluteArcSize=1;arcSize=7.5;fillColor=#FFFFFF;strokeWidth=1.5;strokeColor=none;lucidId=e~0XomNjal4L;" vertex="1" parent="1">
          <mxGeometry x="2970" y="1324.5" width="180" height="50" as="geometry" />
        </mxCell>
        <mxCell id="irXWmgbF4XnON0FsWE9v-92" value="STEP-9" style="html=1;overflow=block;blockSpacing=1;whiteSpace=wrap;fontSize=13;spacing=0;strokeOpacity=100;rounded=1;absoluteArcSize=1;arcSize=7.5;fillColor=#ffffff;strokeWidth=1.5;strokeColor=none;lucidId=j~0XcFszDcei;" vertex="1" parent="1">
          <mxGeometry x="3330" y="1597.5" width="180" height="50" as="geometry" />
        </mxCell>
        <mxCell id="irXWmgbF4XnON0FsWE9v-93" value="STEP-10" style="html=1;overflow=block;blockSpacing=1;whiteSpace=wrap;fontSize=13;spacing=0;strokeOpacity=100;rounded=1;absoluteArcSize=1;arcSize=7.5;fillColor=#ffffff;strokeWidth=1.5;strokeColor=none;lucidId=m~0XJQMWGHe~;" vertex="1" parent="1">
          <mxGeometry x="3620" y="1286.5" width="180" height="50" as="geometry" />
        </mxCell>
        <mxCell id="irXWmgbF4XnON0FsWE9v-94" value="STEP-11" style="html=1;overflow=block;blockSpacing=1;whiteSpace=wrap;fontSize=13;spacing=0;strokeOpacity=100;rounded=1;absoluteArcSize=1;arcSize=7.5;fillColor=#ffffff;strokeWidth=1.5;strokeColor=none;lucidId=q~0XJRMjUZtD;" vertex="1" parent="1">
          <mxGeometry x="3510" y="922.5" width="180" height="50" as="geometry" />
        </mxCell>
        <mxCell id="irXWmgbF4XnON0FsWE9v-96" value="&lt;div style=&quot;display: flex; justify-content: center; text-align: center; align-items: baseline; font-size: 0; line-height: 1.25;margin-top: -2px;&quot;&gt;&lt;span&gt;&lt;span style=&quot;font-size:13px;&quot;&gt;insert data to HUB table(&lt;/span&gt;&lt;span style=&quot;font-size:9.3px;color:#e81313;&quot;&gt;gms_us_hub.ref_track_forward_erp_glbl&lt;/span&gt;&lt;span style=&quot;font-size:16px;&quot;&gt;)&lt;/span&gt;&lt;/span&gt;&lt;/div&gt;" style="html=1;overflow=block;blockSpacing=1;whiteSpace=wrap;shape=document;boundedLbl=1;fontSize=13;spacing=0;strokeOpacity=100;fillOpacity=100;rounded=1;absoluteArcSize=1;arcSize=7.5;fillColor=#ffffff;strokeWidth=1.5;lucidId=MT2XirEBpLnc;" vertex="1" parent="1">
          <mxGeometry x="4470" y="947.5" width="228" height="180" as="geometry" />
        </mxCell>
        <mxCell id="irXWmgbF4XnON0FsWE9v-97" value="" style="html=1;jettySize=18;whiteSpace=wrap;overflow=block;blockSpacing=1;fontSize=13;strokeWidth=1.5;rounded=1;arcSize=10;edgeStyle=orthogonalEdgeStyle;startArrow=none;endArrow=block;endFill=1;exitX=1.003;exitY=0.501;exitPerimeter=0;entryX=-0.003;entryY=0.484;entryPerimeter=0;lucidId=UU2XNwHG~Wk-;" edge="1" parent="1" source="irXWmgbF4XnON0FsWE9v-65" target="irXWmgbF4XnON0FsWE9v-96">
          <mxGeometry width="100" height="100" relative="1" as="geometry">
            <Array as="points" />
          </mxGeometry>
        </mxCell>
        <mxCell id="irXWmgbF4XnON0FsWE9v-98" value="STEP-13" style="html=1;overflow=block;blockSpacing=1;whiteSpace=wrap;fontSize=13;spacing=0;strokeOpacity=100;rounded=1;absoluteArcSize=1;arcSize=7.5;fillColor=#ffffff;strokeWidth=1.5;strokeColor=none;lucidId=1U2XSaPbzKsk;" vertex="1" parent="1">
          <mxGeometry x="4480" y="872.5" width="180" height="50" as="geometry" />
        </mxCell>
        <mxCell id="irXWmgbF4XnON0FsWE9v-102" value="" style="html=1;jettySize=18;whiteSpace=wrap;overflow=block;blockSpacing=1;fontSize=13;strokeWidth=1.5;rounded=1;arcSize=10;edgeStyle=orthogonalEdgeStyle;startArrow=none;endArrow=block;endFill=1;exitX=1;exitY=0.5;entryX=-0.004;entryY=0.5;entryPerimeter=0;lucidId=nfjYdDZEQNsE;exitDx=0;exitDy=0;" edge="1" parent="1" source="irXWmgbF4XnON0FsWE9v-113" target="irXWmgbF4XnON0FsWE9v-59">
          <mxGeometry width="100" height="100" relative="1" as="geometry">
            <Array as="points" />
            <mxPoint x="2180.6719999999996" y="1038.5000000000005" as="sourcePoint" />
          </mxGeometry>
        </mxCell>
        <mxCell id="irXWmgbF4XnON0FsWE9v-108" value="STEP-12" style="html=1;overflow=block;blockSpacing=1;whiteSpace=wrap;fontSize=13;spacing=0;strokeOpacity=100;rounded=1;absoluteArcSize=1;arcSize=7.5;fillColor=#ffffff;strokeWidth=1.5;strokeColor=none;lucidId=1U2XSaPbzKsk;" vertex="1" parent="1">
          <mxGeometry x="3950" y="872.5" width="180" height="50" as="geometry" />
        </mxCell>
        <mxCell id="irXWmgbF4XnON0FsWE9v-113" value="&lt;div style=&quot;display: flex; justify-content: center; text-align: center; align-items: baseline; line-height: 1.25; margin-top: -2px;&quot;&gt;Read &lt;font color=&quot;#ff0000&quot;&gt;&amp;nbsp;lots from Temp table&lt;/font&gt;&lt;/div&gt;" style="html=1;overflow=block;blockSpacing=1;whiteSpace=wrap;shape=process;fontSize=13;spacing=0;strokeOpacity=100;fillOpacity=100;rounded=1;absoluteArcSize=1;arcSize=7.5;fillColor=#ffffff;strokeWidth=1.5;lucidId=VN0XKzcY-zDv;" vertex="1" parent="1">
          <mxGeometry x="2060" y="981" width="240" height="120" as="geometry" />
        </mxCell>
        <mxCell id="irXWmgbF4XnON0FsWE9v-114" value="" style="rounded=1;arcSize=10;dashed=1;strokeColor=#F59D56;fillColor=none;gradientColor=none;strokeWidth=6;perimeterSpacing=2;" vertex="1" parent="1">
          <mxGeometry x="-1650" y="90" width="3570" height="1650" as="geometry" />
        </mxCell>
        <mxCell id="irXWmgbF4XnON0FsWE9v-115" value="" style="rounded=1;arcSize=10;dashed=1;strokeColor=#ff0000;fillColor=none;gradientColor=none;dashPattern=8 4;strokeWidth=2;" vertex="1" parent="1">
          <mxGeometry x="1990" y="100" width="3030" height="1640" as="geometry" />
        </mxCell>
        <mxCell id="irXWmgbF4XnON0FsWE9v-116" style="edgeStyle=orthogonalEdgeStyle;rounded=0;orthogonalLoop=1;jettySize=auto;html=1;exitX=0.5;exitY=1;exitDx=0;exitDy=0;" edge="1" parent="1" source="irXWmgbF4XnON0FsWE9v-115" target="irXWmgbF4XnON0FsWE9v-115">
          <mxGeometry relative="1" as="geometry" />
        </mxCell>
      </root>
    </mxGraphModel>
  </diagram>
</mxfile>
